<?xml version="1.0" encoding="UTF-8"?>
<svg id="Layer_2" data-name="Layer 2" xmlns="http://www.w3.org/2000/svg" viewBox="0 0 608 115">
  <defs>
    <style>
      .cls-1 {
        fill: #fff;
        stroke-width: 0px;
      }
    </style>
  </defs>
  <g id="Layer_1-2" data-name="Layer 1">
    <g>
      <path class="cls-1" d="m20.88,92.26L41.29,21.2c3.74-12.78,1.09-16.83-9.66-17.76l.78-3.43h31.01l36.62,91.47,20.1-70.28c3.58-12.78.93-16.83-14.18-17.76l.93-3.43h40.05l-.94,3.43c-11.37.93-16.2,4.99-19.95,17.76l-26.49,92.25h-8.41L50.02,11.69l-23.22,80.56c-3.58,12.78-.94,16.82,14.18,17.76l-.93,3.43H0l.93-3.43c11.38-.94,16.21-4.99,19.95-17.76Z"/>
      <path class="cls-1" d="m128,95.83c0-25.4,21.2-58.75,46.75-58.75,8.1,0,15.74,3.27,15.74,11.84,0,12.47-16.68,27.89-46.28,29.14-1.25,4.83-2.03,9.35-2.03,13.25,0,7.79,2.8,12,8.42,12,8.1,0,19.32-7.63,28.98-18.54l2.49,1.87c-11.69,17.76-25.86,28.36-38.49,28.36-10.91,0-15.58-7.02-15.58-19.17Zm50.49-46.74c0-4.52-2.49-7.02-6.7-7.02-10.13,0-20.57,15.43-25.86,30.86,20.26-1.71,32.56-13.72,32.56-23.84Z"/>
      <path class="cls-1" d="m205.32,97.55c0-15.12,11.69-35.69,21.97-48.62h-19.32c-6.08,0-8.1,2.8-8.1,6.08,0,2.18,1.25,3.9,2.96,5.46,2.02,1.55,3.27,3.27,3.27,5.61,0,2.96-2.49,5.15-5.46,5.15-3.74,0-7.33-3.74-7.33-9.97,0-9.2,5.15-22.6,28.21-22.6h8.26c6.24,0,7.64-.93,8.26-.93.47,0,.78.31.78.77,0,.32-.16.63-.47,1.09-10.91,14.34-20.26,34.9-20.26,49.71,0,9.03,3.43,14.49,9.97,14.49,3.11,0,6.7-1.71,10.59-4.68-.78-3.27-1.09-6.7-1.09-10.44,0-23.85,9.04-50.02,22.6-50.02,6.08,0,10.13,3.9,10.13,13.09,0,13.09-8.72,30.86-20.1,44.26,2.18,4.68,5.46,7.79,10.28,7.79,12.31,0,25.4-22.13,25.4-39.27,0-10.91-5.3-14.02-5.3-20.57,0-3.74,2.65-6.86,6.39-6.86,5.3,0,9.19,6.39,9.19,15.74,0,29.77-22.91,62.18-42.07,62.18-6.39,0-10.75-3.74-13.4-9.51-7.02,5.77-14.34,9.51-21.04,9.51-9.97,0-14.34-8.57-14.34-17.45Zm42.7-7.95c7.79-9.82,14.03-23.06,14.03-34.59,0-5.92-1.4-9.66-4.21-9.66-5.61,0-10.91,15.58-10.91,33.03,0,3.74.31,7.64,1.09,11.22Z"/>
      <path class="cls-1" d="m303.56,107.68c0-2.33.77-5.92,1.71-9.35l14.96-51.11h-11.06l2.18-8.57h11.37l5.14-17.29c1.56-4.99,10.91-7.95,14.65-7.95.78,0,1.09.31,1.09.93,0,1.4-1.4,5.93-4.36,16.21l-2.33,8.1h20.26l-3.58,8.57h-19.32l-14.02,47.68c-1.25,4.21-1.4,6.86,1.4,6.86s8.88-4.99,18.7-13.56l2.49,2.49c-12.47,15.11-23.37,24.31-32.25,24.31-4.83,0-7.01-2.65-7.01-7.33Z"/>
      <path class="cls-1" d="m353.29,89.6c0-20.42,15.27-52.52,40.98-52.52,13.71,0,23.37,9.35,23.37,25.4,0,20.42-15.27,52.52-40.98,52.52-13.71,0-23.37-9.35-23.37-25.4Zm22.12,20.26c16.05,0,28.99-37.24,28.99-53.14,0-9.66-3.27-14.49-9.04-14.49-15.89,0-28.98,37.24-28.98,53.14,0,9.66,3.27,14.49,9.03,14.49Z"/>
      <path class="cls-1" d="m437,97.55c0-15.12,11.69-35.69,21.97-48.62h-19.32c-6.08,0-8.1,2.8-8.1,6.08,0,2.18,1.25,3.9,2.96,5.46,2.02,1.55,3.27,3.27,3.27,5.61,0,2.96-2.49,5.15-5.46,5.15-3.74,0-7.32-3.74-7.32-9.97,0-9.2,5.14-22.6,28.2-22.6h8.26c6.24,0,7.64-.93,8.26-.93.47,0,.78.31.78.77,0,.32-.16.63-.47,1.09-10.91,14.34-20.26,34.9-20.26,49.71,0,9.03,3.43,14.49,9.97,14.49,3.11,0,6.7-1.71,10.59-4.68-.78-3.27-1.09-6.7-1.09-10.44,0-23.85,9.04-50.02,22.6-50.02,6.08,0,10.13,3.9,10.13,13.09,0,13.09-8.72,30.86-20.1,44.26,2.18,4.68,5.45,7.79,10.28,7.79,12.31,0,25.4-22.13,25.4-39.27,0-10.91-5.3-14.02-5.3-20.57,0-3.74,2.65-6.86,6.39-6.86,5.3,0,9.19,6.39,9.19,15.74,0,29.77-22.91,62.18-42.07,62.18-6.39,0-10.75-3.74-13.4-9.51-7.01,5.77-14.33,9.51-21.03,9.51-9.97,0-14.34-8.57-14.34-17.45Zm42.7-7.95c7.79-9.82,14.03-23.06,14.03-34.59,0-5.92-1.41-9.66-4.21-9.66-5.61,0-10.91,15.58-10.91,33.03,0,3.74.31,7.64,1.09,11.22Z"/>
      <path class="cls-1" d="m534.92,110.33c0-1.87.63-4.21,1.87-8.57l13.09-45.97c.94-3.43,1.56-6.39,0-6.39-1.4,0-5.14,3.9-13.09,13.4l-2.8-2.02c12-17.3,19.63-23.69,26.18-23.69,4.52,0,6.23,2.65,6.23,6.55,0,3.27-1.71,9.5-3.27,14.03l-5.77,19.17h.47c11.37-19.95,27.11-39.74,40.67-39.74,4.83,0,7.32,2.49,7.32,7.17,0,3.43-1.24,8.88-2.65,13.4l-11.06,38.64c-.94,3.43-1.56,6.39-.16,6.39,1.56,0,5.3-3.9,13.25-13.4l2.8,2.02c-12,17.3-19.63,23.69-26.18,23.69-4.52,0-6.24-2.65-6.24-6.39,0-3.43,1.87-9.66,3.12-14.19l10.59-36.31c1.4-4.83,1.71-7.79-1.09-7.79-7.17,0-29.77,30.39-38.96,56.1-2.18,5.61-5.3,8.57-9.5,8.57-2.96,0-4.83-1.72-4.83-4.68Z"/>
    </g>
  </g>
</svg>